<svg width="30" height="30" viewBox="0 0 30 30" fill="none" xmlns="http://www.w3.org/2000/svg">
<circle cx="15" cy="15" r="15" fill="#202125" fill-opacity="0.77"/>
<rect x="6.56055" y="7.02271" width="5.36966" height="14.9157" fill="#DFFF60"/>
<path fill-rule="evenodd" clip-rule="evenodd" d="M14.3108 19.3595C14.5751 18.373 15.5891 17.7876 16.5756 18.0519C17.562 18.3163 18.1474 19.3302 17.8831 20.3167C17.6188 21.3032 16.6048 21.8886 15.6184 21.6242C14.6319 21.3599 14.0465 20.346 14.3108 19.3595ZM16.7291 17.2799C15.3392 16.9359 13.9238 17.7669 13.5516 19.1561C13.1749 20.5618 14.0092 22.0068 15.4149 22.3835C16.8207 22.7601 18.2657 21.9259 18.6423 20.5201C18.9107 19.5185 18.5643 18.4969 17.8345 17.8561L23.0286 7.62669L21.9172 7.06239L16.7291 17.2799Z" fill="#DFFF60"/>
<path fill-rule="evenodd" clip-rule="evenodd" d="M24.0401 19.3595C23.7758 18.373 22.7618 17.7876 21.7754 18.0519C20.7889 18.3163 20.2035 19.3302 20.4678 20.3167C20.7322 21.3032 21.7461 21.8886 22.7326 21.6242C23.719 21.3599 24.3045 20.346 24.0401 19.3595ZM21.6218 17.2799C23.0117 16.9359 24.4271 17.7669 24.7993 19.1561C25.176 20.5618 24.3418 22.0068 22.936 22.3835C21.5302 22.7601 20.0853 21.9259 19.7086 20.5201C19.4402 19.5185 19.7866 18.4969 20.5165 17.8561L15.3224 7.62669L16.4338 7.06239L21.6218 17.2799Z" fill="#DFFF60"/>
<path d="M12.2285 9.54614H9.5437" stroke="#1C1C1E" stroke-width="0.441177"/>
<path d="M12.2285 10.7393H9.5437" stroke="#1C1C1E" stroke-width="0.441177"/>
<path d="M12.2285 11.9326H9.5437" stroke="#1C1C1E" stroke-width="0.441177"/>
<path d="M12.2285 13.126H9.5437" stroke="#1C1C1E" stroke-width="0.441177"/>
<path d="M12.2285 16.7056H9.5437" stroke="#1C1C1E" stroke-width="0.441177"/>
<path d="M12.2285 14.3191H9.5437" stroke="#1C1C1E" stroke-width="0.441177"/>
<path d="M12.2285 17.8989H9.5437" stroke="#1C1C1E" stroke-width="0.441177"/>
<path d="M12.2285 15.5125H9.5437" stroke="#1C1C1E" stroke-width="0.441177"/>
<path d="M12.2285 19.092H9.5437" stroke="#1C1C1E" stroke-width="0.441177"/>
</svg>
