<svg width="19" height="19" viewBox="0 0 19 19" fill="none" xmlns="http://www.w3.org/2000/svg">
<path d="M6.11011 14.1039L8.43511 15.8439C8.73511 16.1339 9.41011 16.2789 9.86011 16.2789H12.7101C13.6101 16.2789 14.5851 15.6264 14.8101 14.7564L16.6101 9.46394C16.9851 8.44894 16.3101 7.57894 15.1851 7.57894H12.1851C11.7351 7.57894 11.3601 7.21643 11.4351 6.70893L11.8101 4.38893C11.9601 3.73643 11.5101 3.01143 10.8351 2.79393C10.2351 2.57643 9.48511 2.86643 9.18511 3.30143L6.11011 7.72394" stroke="#292D32" stroke-miterlimit="10"/>
<path d="M2.28491 14.1038V6.99884C2.28491 5.98384 2.73491 5.62134 3.78491 5.62134H4.53491C5.58491 5.62134 6.03491 5.98384 6.03491 6.99884V14.1038C6.03491 15.1188 5.58491 15.4813 4.53491 15.4813H3.78491C2.73491 15.4813 2.28491 15.1188 2.28491 14.1038Z" stroke="#292D32" stroke-linecap="round" stroke-linejoin="round"/>
</svg>
