<svg width="30" height="30" viewBox="0 0 30 30" fill="none" xmlns="http://www.w3.org/2000/svg">
<circle cx="15" cy="15" r="15" fill="#B9C8FF"/>
<circle cx="15" cy="15" r="14.7071" stroke="#2C5AFF" stroke-opacity="0.24" stroke-width="0.585723"/>
<path fill-rule="evenodd" clip-rule="evenodd" d="M6.92202 10.3625L12.2576 12.5776L10.4434 13.251L10.4554 13.2691L10.4391 13.2624L8.50177 17.9288L20.4336 22.8823L23.5606 24.1916L25.5135 19.5272L24.323 19.0287L24.3219 19.0259L23.6636 18.7526L21.3601 17.7881L21.3572 17.7951L18.8901 16.7709L20.8023 16.125L20.8049 16.126L20.8058 16.1238L20.8082 16.123L20.8067 16.1217L22.7422 11.4596L8.85931 5.69604C8.30559 5.93127 7.75207 6.16602 7.19854 6.40077L7.19834 6.40086C6.64499 6.63554 6.09164 6.87021 5.53809 7.10537L6.92202 10.3625Z" fill="#2C5AFF"/>
</svg>
