<svg width="19" height="19" viewBox="0 0 19 19" fill="none" xmlns="http://www.w3.org/2000/svg">
<path d="M6.11011 14.1037L8.43511 15.8437C8.73511 16.1337 9.41011 16.2787 9.86011 16.2787H12.7101C13.6101 16.2787 14.5851 15.6262 14.8101 14.7562L16.6101 9.46369C16.9851 8.44869 16.3101 7.57869 15.1851 7.57869H12.1851C11.7351 7.57869 11.3601 7.21619 11.4351 6.70869L11.8101 4.38869C11.9601 3.73619 11.5101 3.01119 10.8351 2.79369C10.2351 2.57619 9.48511 2.86619 9.18511 3.30119L6.11011 7.72369" stroke="#51E877" stroke-miterlimit="10"/>
<path d="M2.28491 14.1036V6.99859C2.28491 5.98359 2.73491 5.62109 3.78491 5.62109H4.53491C5.58491 5.62109 6.03491 5.98359 6.03491 6.99859V14.1036C6.03491 15.1186 5.58491 15.4811 4.53491 15.4811H3.78491C2.73491 15.4811 2.28491 15.1186 2.28491 14.1036Z" stroke="#51E877" stroke-linecap="round" stroke-linejoin="round"/>
</svg>
