<svg width="29" height="29" viewBox="0 0 29 29" fill="none" xmlns="http://www.w3.org/2000/svg">
<circle cx="14.5" cy="14.5" r="14.5" fill="#0E6EFF"/>
<path d="M12.8947 18.1372L19.5161 15.9007L14.2506 11.4277L9.60156 13.1535L12.8947 18.1372Z" fill="#51E877"/>
<path d="M6.2324 10.3905L19.5121 15.9036L21.3652 11.4399L8.08553 5.9268C7.0263 6.37678 5.96783 6.82492 4.9086 7.2749C5.34986 8.31343 5.79113 9.35196 6.2324 10.3905Z" fill="#DFFF60"/>
<path fill-rule="evenodd" clip-rule="evenodd" d="M22.8781 18.6801L24.0165 19.1567L22.1483 23.6185L19.099 22.3418L7.74414 17.6278L9.59727 13.1641L20.0408 17.4997L20.0435 17.4933L22.1886 18.3914L22.877 18.6772C22.8774 18.6782 22.8778 18.6792 22.8781 18.6801Z" fill="#DFFF60"/>
</svg>
