<svg width="24" height="24" viewBox="0 0 24 24" fill="none" xmlns="http://www.w3.org/2000/svg">
<circle cx="12" cy="12" r="11.5" fill="white" stroke="#E9E9E9"/>
<path d="M6.5 7V14.5C6.5 15.3284 7.17157 16 8 16H9.5M6.5 7H5.5M6.5 7H17.5M17.5 7H18.5M17.5 7V14.5C17.5 15.3284 16.8284 16 16 16H14.5M9.5 16H14.5M9.5 16L8.83333 18M14.5 16L15.1667 18M15.1667 18L15.5 19M15.1667 18H8.83333M8.83333 18L8.5 19M10 12.5V13.5M12 11V13.5M14 9.5V13.5" stroke="#0E6EFF" stroke-linecap="round" stroke-linejoin="round"/>
</svg>
