<svg width="20" height="20" viewBox="0 0 20 20" fill="none" xmlns="http://www.w3.org/2000/svg">
<circle cx="10" cy="10" r="10" fill="#DFFF60"/>
<path d="M10.8356 14.1195C9.04327 14.1195 7.76473 13.1516 7.71694 11.7416H9.05522C9.10302 12.5064 9.8558 12.9843 10.8237 12.9843C11.8632 12.9843 12.628 12.4108 12.628 11.5744C12.628 10.726 11.911 10.1046 10.6803 10.1046H9.93944V9.02924H10.6803C11.6601 9.02924 12.3531 8.47958 12.3531 7.65511C12.3531 6.86648 11.7676 6.32877 10.8476 6.32877C9.97529 6.32877 9.21056 6.80673 9.17471 7.59536H7.90812C7.94397 6.18539 9.2464 5.22947 10.8595 5.22947C12.5563 5.22947 13.6317 6.30487 13.6197 7.58341C13.6317 8.56323 13.0223 9.28016 12.0903 9.50719V9.56694C13.2732 9.73422 13.9543 10.5229 13.9543 11.6222C13.9543 13.068 12.628 14.1195 10.8356 14.1195Z" fill="#0E6EFF"/>
</svg>
