<svg width="49" height="49" viewBox="0 0 49 49" fill="none" xmlns="http://www.w3.org/2000/svg">
<circle cx="24.5" cy="24.5" r="24.5" fill="#202125" fill-opacity="0.77"/>
<rect x="10.7158" y="11.4705" width="8.77044" height="24.3623" fill="#DFFF60"/>
<path fill-rule="evenodd" clip-rule="evenodd" d="M22.8915 31.4913C23.3944 29.6146 25.3235 28.5008 27.2003 29.0037C29.077 29.5066 30.1908 31.4357 29.6879 33.3124C29.185 35.1892 27.2559 36.303 25.3792 35.8001C23.5024 35.2972 22.3886 33.3681 22.8915 31.4913ZM27.3226 28.2236C25.0523 27.6614 22.7403 29.0189 22.1323 31.2879C21.5171 33.584 22.8796 35.9441 25.1757 36.5593C27.4718 37.1745 29.8319 35.8119 30.4471 33.5159C30.8855 31.88 30.3198 30.2116 29.1279 29.1649L37.6116 12.4566L35.7964 11.5349L27.3226 28.2236Z" fill="#DFFF60"/>
<path fill-rule="evenodd" clip-rule="evenodd" d="M39.7452 31.4913C39.2423 29.6146 37.3132 28.5008 35.4365 29.0037C33.5597 29.5066 32.4459 31.4357 32.9488 33.3124C33.4517 35.1892 35.3808 36.303 37.2576 35.8001C39.1343 35.2972 40.2481 33.3681 39.7452 31.4913ZM35.3141 28.2236C37.5844 27.6614 39.8964 29.0189 40.5044 31.2879C41.1197 33.584 39.7571 35.9441 37.461 36.5593C35.1649 37.1745 32.8048 35.8119 32.1896 33.5159C31.7513 31.88 32.3169 30.2116 33.5089 29.1649L25.0251 12.4566L26.8403 11.5349L35.3141 28.2236Z" fill="#DFFF60"/>
<path d="M19.9731 15.5918H15.5879" stroke="#3D4149" stroke-width="0.441177"/>
<path d="M19.9731 17.5408H15.5879" stroke="#3D4149" stroke-width="0.441177"/>
<path d="M19.9731 19.4897H15.5879" stroke="#3D4149" stroke-width="0.441177"/>
<path d="M19.9731 21.439H15.5879" stroke="#3D4149" stroke-width="0.441177"/>
<path d="M19.9731 27.2859H15.5879" stroke="#3D4149" stroke-width="0.441177"/>
<path d="M19.9731 23.3879H15.5879" stroke="#3D4149" stroke-width="0.441177"/>
<path d="M19.9731 29.2349H15.5879" stroke="#3D4149" stroke-width="0.441177"/>
<path d="M19.9731 25.3369H15.5879" stroke="#3D4149" stroke-width="0.441177"/>
<path d="M19.9731 31.1838H15.5879" stroke="#3D4149" stroke-width="0.441177"/>
</svg>
