<svg width="139" height="89" viewBox="0 0 139 89" fill="none" xmlns="http://www.w3.org/2000/svg">
<rect width="138.527" height="89" rx="10" fill="#F4F4F4"/>
<path fill-rule="evenodd" clip-rule="evenodd" d="M32.7615 26.4272L54.9724 35.6481L47.4175 38.4526L47.4663 38.5264L47.4007 38.4991L39.3354 57.9263L89.0238 78.5548L102.028 83.9997L110.159 64.5809L105.202 62.5054L105.197 62.4938L102.473 61.3627L92.8675 57.3409L92.8554 57.3699L82.5841 53.1057L90.5457 50.4166L90.5583 50.4218L90.5629 50.4108L90.5681 50.409L90.5648 50.4063L98.6236 30.9947L40.8268 7C38.522 7.97913 36.218 8.95626 33.914 9.93339L33.9132 9.93375C31.6091 10.9109 29.3049 11.8881 27 12.8673L32.7615 26.4272Z" fill="#E9E9E9"/>
</svg>
