<svg width="24" height="24" viewBox="0 0 24 24" fill="none" xmlns="http://www.w3.org/2000/svg">
<g clip-path="url(#clip0_1293_10738)">
<path d="M6.37966 18.977L6.30489 19.7233L6.37965 18.977C5.66227 18.9051 5.09488 18.3377 5.02301 17.6203C5.00962 17.4867 5.02536 17.2954 5.08881 16.6809C5.09014 16.6681 5.09144 16.6555 5.09273 16.643C5.11692 16.4093 5.13507 16.234 5.13332 16.0624C5.12536 15.284 4.81674 14.5389 4.27201 13.983C4.15191 13.8604 4.0151 13.7492 3.83273 13.6011C3.823 13.5932 3.81314 13.5852 3.80315 13.577C3.32378 13.1874 3.17736 13.0633 3.09234 12.9593C2.63589 12.4012 2.63589 11.5988 3.09234 11.0407C3.17736 10.9367 3.32378 10.8126 3.80315 10.423C3.81314 10.4148 3.82299 10.4068 3.83271 10.3989C4.01509 10.2508 4.15191 10.1396 4.272 10.017L3.73628 9.49216L4.272 10.017C4.81674 9.46106 5.12536 8.71597 5.13332 7.93765C5.13507 7.76605 5.11692 7.59071 5.09273 7.35698C5.09144 7.34452 5.09014 7.33189 5.08881 7.31909C5.02536 6.70461 5.00962 6.51329 5.02301 6.37965C5.09488 5.66227 5.66227 5.09488 6.37965 5.02301C6.51329 5.00962 6.70461 5.02536 7.31909 5.08881C7.33189 5.09014 7.34452 5.09144 7.35698 5.09273C7.59071 5.11692 7.76605 5.13507 7.93765 5.13332C8.71597 5.12536 9.46106 4.81674 10.017 4.272L9.49216 3.73628L10.017 4.272C10.1396 4.15191 10.2508 4.01509 10.3989 3.83271C10.4068 3.82299 10.4148 3.81314 10.423 3.80315C10.8126 3.32378 10.9367 3.17736 11.0407 3.09234C11.5988 2.63589 12.4012 2.63589 12.9593 3.09234C13.0633 3.17736 13.1874 3.32378 13.577 3.80315C13.5852 3.81314 13.5932 3.823 13.6011 3.83273C13.7492 4.0151 13.8604 4.15191 13.983 4.272C14.5389 4.81674 15.284 5.12536 16.0624 5.13332C16.2339 5.13507 16.4093 5.11692 16.643 5.09273C16.6555 5.09144 16.6681 5.09014 16.6809 5.08881C17.2954 5.02536 17.4867 5.00962 17.6203 5.02301C18.3377 5.09488 18.9051 5.66227 18.977 6.37965L19.7233 6.30489L18.977 6.37966C18.9904 6.51329 18.9746 6.70461 18.9112 7.31909L18.9073 7.35702C18.8831 7.59073 18.8649 7.76606 18.8667 7.93765C18.8746 8.71597 19.1833 9.46106 19.728 10.017C19.8481 10.1396 19.9849 10.2508 20.1673 10.3989L20.1968 10.423C20.6762 10.8126 20.8226 10.9367 20.9077 11.0407C21.3641 11.5988 21.3641 12.4012 20.9077 12.9593L21.4882 13.4341L20.9077 12.9593C20.8226 13.0633 20.6762 13.1874 20.1969 13.577L20.1672 13.6011C19.9849 13.7493 19.8481 13.8604 19.728 13.983C19.1833 14.5389 18.8746 15.284 18.8667 16.0624C18.8649 16.2339 18.8831 16.4093 18.9073 16.643L18.9112 16.6809C18.9746 17.2954 18.9904 17.4867 18.977 17.6203L19.7233 17.6951L18.977 17.6203C18.9051 18.3377 18.3377 18.9051 17.6203 18.977L17.6951 19.7233L17.6203 18.977C17.4867 18.9904 17.2954 18.9746 16.6809 18.9112L16.643 18.9073C16.4093 18.8831 16.2339 18.8649 16.0624 18.8667C15.284 18.8746 14.5389 19.1833 13.983 19.728C13.8604 19.8481 13.7493 19.9849 13.6011 20.1672L13.577 20.1968C13.1874 20.6762 13.0633 20.8226 12.9593 20.9077L13.4341 21.4882L12.9593 20.9077C12.4012 21.3641 11.5988 21.3641 11.0407 20.9077C10.9367 20.8226 10.8126 20.6762 10.423 20.1969L10.3989 20.1672C10.2508 19.9849 10.1396 19.8481 10.017 19.728C9.46106 19.1833 8.71597 18.8746 7.93765 18.8667C7.76606 18.8649 7.59073 18.8831 7.35702 18.9073L7.31909 18.9112C6.70461 18.9746 6.51329 18.9904 6.37966 18.977Z" stroke="#636366" stroke-width="1.5"/>
<path d="M14 8L10 12H14L10 16" stroke="#636366" stroke-width="1.5" stroke-linecap="round" stroke-linejoin="round"/>
</g>
<defs>
<clipPath id="clip0_1293_10738">
<rect width="24" height="24" fill="white"/>
</clipPath>
</defs>
</svg>
