<svg width="22" height="22" viewBox="0 0 22 22" fill="none" xmlns="http://www.w3.org/2000/svg">
<path d="M10.9996 20.8634C9.64288 20.8634 8.27705 20.35 7.21372 19.3325C4.50955 16.7292 1.52122 12.5767 2.64872 7.63587C3.66622 3.15337 7.58038 1.14587 10.9996 1.14587C10.9996 1.14587 10.9996 1.14587 11.0087 1.14587C14.4279 1.14587 18.3421 3.15337 19.3596 7.64504C20.4779 12.5859 17.4896 16.7292 14.7854 19.3325C13.7221 20.35 12.3562 20.8634 10.9996 20.8634ZM10.9996 2.52087C8.33205 2.52087 4.90372 3.94171 3.99622 7.93837C3.00622 12.2559 5.71955 15.9775 8.17622 18.3334C9.76205 19.8642 12.2462 19.8642 13.8321 18.3334C16.2796 15.9775 18.9929 12.2559 18.0212 7.93837C17.1046 3.94171 13.6671 2.52087 10.9996 2.52087Z" fill="#636366"/>
<path d="M9.85415 12.6042C9.67999 12.6042 9.50582 12.54 9.36832 12.4025L7.99332 11.0275C7.72749 10.7617 7.72749 10.3217 7.99332 10.0559C8.25915 9.79003 8.69915 9.79003 8.96499 10.0559L9.85415 10.945L13.035 7.76419C13.3008 7.49836 13.7408 7.49836 14.0067 7.76419C14.2725 8.03003 14.2725 8.47003 14.0067 8.73586L10.34 12.4025C10.2025 12.54 10.0283 12.6042 9.85415 12.6042Z" fill="#636366"/>
</svg>
