<svg width="24" height="24" viewBox="0 0 24 24" fill="none" xmlns="http://www.w3.org/2000/svg">
<circle cx="12" cy="12" r="12" fill="#202125" fill-opacity="0.77"/>
<rect x="5.24805" y="5.61816" width="4.29573" height="11.9326" fill="#DFFF60"/>
<path fill-rule="evenodd" clip-rule="evenodd" d="M11.4495 15.4876C11.661 14.6984 12.4721 14.2301 13.2613 14.4415C14.0505 14.653 14.5188 15.4642 14.3074 16.2533C14.0959 17.0425 13.2847 17.5108 12.4956 17.2994C11.7064 17.0879 11.2381 16.2767 11.4495 15.4876ZM13.3843 13.8239C12.2723 13.5486 11.1399 14.2135 10.8422 15.3248C10.5408 16.4494 11.2082 17.6054 12.3328 17.9067C13.4574 18.2081 14.6134 17.5407 14.9147 16.4161C15.1294 15.6148 14.8524 14.7976 14.2685 14.2849L18.4238 6.10133L17.5347 5.64988L13.3843 13.8239Z" fill="#DFFF60"/>
<path fill-rule="evenodd" clip-rule="evenodd" d="M19.2321 15.4878C19.0207 14.6986 18.2095 14.2303 17.4203 14.4418C16.6312 14.6532 16.1628 15.4644 16.3743 16.2536C16.5857 17.0427 17.3969 17.5111 18.1861 17.2996C18.9752 17.0882 19.4436 16.277 19.2321 15.4878ZM17.2974 13.8242C18.4093 13.5489 19.5417 14.2137 19.8395 15.3251C20.1408 16.4497 19.4734 17.6056 18.3488 17.907C17.2242 18.2083 16.0683 17.5409 15.7669 16.4163C15.5522 15.615 15.8293 14.7978 16.4131 14.2852L12.2578 6.10157L13.1469 5.65012L17.2974 13.8242Z" fill="#DFFF60"/>
<path d="M9.78263 7.63672H7.63477" stroke="#3D4149" stroke-width="0.352941"/>
<path d="M9.78263 8.59155H7.63477" stroke="#3D4149" stroke-width="0.352941"/>
<path d="M9.78263 9.54614H7.63477" stroke="#3D4149" stroke-width="0.352941"/>
<path d="M9.78263 10.5007H7.63477" stroke="#3D4149" stroke-width="0.352941"/>
<path d="M9.78263 13.3645H7.63477" stroke="#3D4149" stroke-width="0.352941"/>
<path d="M9.78263 11.4553H7.63477" stroke="#3D4149" stroke-width="0.352941"/>
<path d="M9.78263 14.3191H7.63477" stroke="#3D4149" stroke-width="0.352941"/>
<path d="M9.78263 12.4099H7.63477" stroke="#3D4149" stroke-width="0.352941"/>
<path d="M9.78263 15.2737H7.63477" stroke="#3D4149" stroke-width="0.352941"/>
</svg>
