<svg xmlns="http://www.w3.org/2000/svg" width="44" height="44" viewBox="0 0 44 44" fill="none">
  <circle cx="22" cy="22" r="20" stroke="#C6C6C6" stroke-width="2.80899"/>
  <rect x="9.10621" y="19.2752" width="6.1236" height="7.30337" fill="#636366" stroke="#C6C6C6" stroke-width="0.0561798"/>
  <mask id="path-3-inside-1_729_19318" fill="white">
    <path fill-rule="evenodd" clip-rule="evenodd" d="M9.07776 19.3947L15.5003 13.1006H27.7722L30.915 16.187C30.3912 16.722 29.8674 17.2565 29.3436 17.7909C28.8198 18.3253 28.296 18.8598 27.7722 19.3948H9.07776V19.3947Z"/>
  </mask>
  <path fill-rule="evenodd" clip-rule="evenodd" d="M9.07776 19.3947L15.5003 13.1006H27.7722L30.915 16.187C30.3912 16.722 29.8674 17.2565 29.3436 17.7909C28.8198 18.3253 28.296 18.8598 27.7722 19.3948H9.07776V19.3947Z" fill="#C6C6C6"/>
  <path d="M9.07776 19.3947L9.04264 19.3588L9.02759 19.3736V19.3947H9.07776ZM15.5003 13.1006V13.0504H15.4798L15.4652 13.0648L15.5003 13.1006ZM27.7722 13.1006L27.8074 13.0648L27.7927 13.0504H27.7722V13.1006ZM30.915 16.187L30.9508 16.2221L30.9859 16.1863L30.9501 16.1512L30.915 16.187ZM29.3436 17.7909L29.3794 17.826L29.3436 17.7909ZM27.7722 19.3948V19.445H27.7933L27.8081 19.4299L27.7722 19.3948ZM9.07776 19.3948H9.02759V19.445H9.07776V19.3948ZM9.11288 19.4305L15.5354 13.1364L15.4652 13.0648L9.04264 19.3588L9.11288 19.4305ZM27.7722 13.0504H15.5003V13.1508H27.7722V13.0504ZM30.9501 16.1512L27.8074 13.0648L27.7371 13.1364L30.8798 16.2228L30.9501 16.1512ZM29.3794 17.826C29.9032 17.2916 30.427 16.7572 30.9508 16.2221L30.8791 16.1519C30.3554 16.6869 29.8316 17.2214 29.3078 17.7558L29.3794 17.826ZM27.8081 19.4299C28.3319 18.8949 28.8556 18.3605 29.3794 17.826L29.3078 17.7558C28.784 18.2902 28.2602 18.8247 27.7364 19.3597L27.8081 19.4299ZM9.07776 19.445H27.7722V19.3447H9.07776V19.445ZM9.02759 19.3947V19.3948H9.12793V19.3947H9.02759Z" fill="#C6C6C6" mask="url(#path-3-inside-1_729_19318)"/>
  <mask id="path-5-inside-2_729_19318" fill="white">
    <path fill-rule="evenodd" clip-rule="evenodd" d="M9.07739 26.5835H20.2941L20.3079 26.606V26.5835H22.1796V29.6659L22.1797 29.6661L22.1796 29.6662V32.87H20.3079V32.8465L20.2941 32.87H15.2341L9.07774 26.5879V32.87H9.07739V32.8464V26.5835Z"/>
  </mask>
  <path fill-rule="evenodd" clip-rule="evenodd" d="M9.07739 26.5835H20.2941L20.3079 26.606V26.5835H22.1796V29.6659L22.1797 29.6661L22.1796 29.6662V32.87H20.3079V32.8465L20.2941 32.87H15.2341L9.07774 26.5879V32.87H9.07739V32.8464V26.5835Z" fill="#C6C6C6"/>
  <path d="M20.2941 26.5835L20.342 26.5542L20.3256 26.5273H20.2941V26.5835ZM9.07739 26.5835V26.5273H9.02121V26.5835H9.07739ZM20.3079 26.606L20.2599 26.6354L20.364 26.8055V26.606H20.3079ZM20.3079 26.5835V26.5274H20.2517V26.5835H20.3079ZM22.1796 26.5835H22.2358V26.5274H22.1796V26.5835ZM22.1796 29.6659H22.1234V29.6817L22.1317 29.6952L22.1796 29.6659ZM22.1797 29.6661L22.2282 29.6945L22.2452 29.6655L22.2276 29.6367L22.1797 29.6661ZM22.1796 29.6662L22.1312 29.6378L22.1234 29.6509V29.6662H22.1796ZM22.1796 32.87V32.9262H22.2358V32.87H22.1796ZM20.3079 32.87H20.2517V32.9262H20.3079V32.87ZM20.3079 32.8465H20.364V32.6402L20.2594 32.818L20.3079 32.8465ZM20.2941 32.87V32.9262H20.3262L20.3425 32.8985L20.2941 32.87ZM15.2341 32.87L15.194 32.9093L15.2105 32.9262H15.2341V32.87ZM9.07774 26.5879L9.11786 26.5486L9.02156 26.4504V26.5879H9.07774ZM9.07774 32.87V32.9262H9.13392V32.87H9.07774ZM9.07739 32.87H9.02121V32.9262H9.07739V32.87ZM20.2941 26.5273H9.07739V26.6397H20.2941V26.5273ZM20.3558 26.5767L20.342 26.5542L20.2461 26.6128L20.2599 26.6354L20.3558 26.5767ZM20.2517 26.5835V26.606H20.364V26.5835H20.2517ZM22.1796 26.5274H20.3079V26.6397H22.1796V26.5274ZM22.2358 29.6659V26.5835H22.1234V29.6659H22.2358ZM22.2276 29.6367L22.2275 29.6366L22.1317 29.6952L22.1318 29.6954L22.2276 29.6367ZM22.228 29.6947L22.2282 29.6945L22.1313 29.6376L22.1312 29.6378L22.228 29.6947ZM22.2358 32.87V29.6662H22.1234V32.87H22.2358ZM20.3079 32.9262H22.1796V32.8138H20.3079V32.9262ZM20.2517 32.8465V32.87H20.364V32.8465H20.2517ZM20.3425 32.8985L20.3563 32.875L20.2594 32.818L20.2456 32.8415L20.3425 32.8985ZM15.2341 32.9262H20.2941V32.8138H15.2341V32.9262ZM15.2742 32.8306L9.11786 26.5486L9.03761 26.6273L15.194 32.9093L15.2742 32.8306ZM9.02156 26.5879V32.87H9.13392V26.5879H9.02156ZM9.07739 32.9262H9.07774V32.8138H9.07739V32.9262ZM9.02121 32.8464V32.87H9.13357V32.8464H9.02121ZM9.02121 26.5835V32.8464H9.13357V26.5835H9.02121Z" fill="#C6C6C6" mask="url(#path-5-inside-2_729_19318)"/>
  <path d="M27.8284 10.7372L34.7079 16.2978L27.8284 21.8585L27.8284 10.7372Z" fill="#C6C6C6" stroke="#C6C6C6" stroke-width="0.0561798"/>
  <rect x="9.16286" y="19.2752" width="6.1236" height="7.30337" fill="#636366" stroke="#C6C6C6" stroke-width="0.0561798"/>
  <mask id="path-9-inside-3_729_19318" fill="white">
    <path fill-rule="evenodd" clip-rule="evenodd" d="M9.13477 19.3952L15.5573 13.1011H27.8292L30.972 16.1875C30.4482 16.7225 29.9244 17.257 29.4006 17.7914C28.8768 18.3258 28.353 18.8603 27.8292 19.3953H9.13477V19.3952Z"/>
  </mask>
  <path fill-rule="evenodd" clip-rule="evenodd" d="M9.13477 19.3952L15.5573 13.1011H27.8292L30.972 16.1875C30.4482 16.7225 29.9244 17.257 29.4006 17.7914C28.8768 18.3258 28.353 18.8603 27.8292 19.3953H9.13477V19.3952Z" fill="#C6C6C6"/>
  <path d="M9.13477 19.3952L9.09965 19.3593L9.08459 19.3741V19.3952H9.13477ZM15.5573 13.1011V13.0509H15.5368L15.5222 13.0652L15.5573 13.1011ZM27.8292 13.1011L27.8644 13.0653L27.8497 13.0509H27.8292V13.1011ZM30.972 16.1875L31.0079 16.2226L31.0429 16.1868L31.0072 16.1517L30.972 16.1875ZM29.4006 17.7914L29.3648 17.7563H29.3648L29.4006 17.7914ZM27.8292 19.3953V19.4455H27.8503L27.8651 19.4304L27.8292 19.3953ZM9.13477 19.3953H9.08459V19.4455H9.13477V19.3953ZM9.16988 19.431L15.5924 13.1369L15.5222 13.0652L9.09965 19.3593L9.16988 19.431ZM27.8292 13.0509H15.5573V13.1512H27.8292V13.0509ZM31.0072 16.1517L27.8644 13.0653L27.7941 13.1369L30.9368 16.2233L31.0072 16.1517ZM29.4364 17.8265C29.9602 17.2921 30.484 16.7576 31.0079 16.2226L30.9361 16.1524C30.4124 16.6874 29.8886 17.2218 29.3648 17.7563L29.4364 17.8265ZM27.8651 19.4304C28.3889 18.8954 28.9126 18.3609 29.4364 17.8265L29.3648 17.7563C28.841 18.2907 28.3172 18.8251 27.7934 19.3602L27.8651 19.4304ZM9.13477 19.4455H27.8292V19.3452H9.13477V19.4455ZM9.08459 19.3952V19.3953H9.18494V19.3952H9.08459Z" fill="#C6C6C6" mask="url(#path-9-inside-3_729_19318)"/>
  <mask id="path-11-inside-4_729_19318" fill="white">
    <path fill-rule="evenodd" clip-rule="evenodd" d="M9.13477 26.5845H20.3514L20.3652 26.607V26.5845H22.237V29.6669L22.2371 29.667L22.237 29.6672V32.871H20.3652V32.8475L20.3514 32.8709H15.2915L9.13477 26.5886V26.5845Z"/>
  </mask>
  <path fill-rule="evenodd" clip-rule="evenodd" d="M9.13477 26.5845H20.3514L20.3652 26.607V26.5845H22.237V29.6669L22.2371 29.667L22.237 29.6672V32.871H20.3652V32.8475L20.3514 32.8709H15.2915L9.13477 26.5886V26.5845Z" fill="#C6C6C6"/>
  <path d="M20.3514 26.5845L20.3994 26.5552L20.3829 26.5283H20.3514V26.5845ZM9.13477 26.5845V26.5283H9.07859V26.5845H9.13477ZM20.3652 26.607L20.3173 26.6363L20.4214 26.8065V26.607H20.3652ZM20.3652 26.5845V26.5283H20.3091V26.5845H20.3652ZM22.237 26.5845H22.2932V26.5283H22.237V26.5845ZM22.237 29.6669H22.1808V29.6827L22.1891 29.6962L22.237 29.6669ZM22.2371 29.667L22.2855 29.6955L22.3026 29.6665L22.285 29.6377L22.2371 29.667ZM22.237 29.6672L22.1886 29.6387L22.1808 29.6519V29.6672H22.237ZM22.237 32.871V32.9272H22.2932V32.871H22.237ZM20.3652 32.871H20.3091V32.9272H20.3652V32.871ZM20.3652 32.8475H20.4214V32.6411L20.3168 32.819L20.3652 32.8475ZM20.3514 32.8709V32.9271H20.3836L20.3999 32.8994L20.3514 32.8709ZM15.2915 32.8709L15.2514 32.9103L15.2679 32.9271H15.2915V32.8709ZM9.13477 26.5886H9.07859V26.6115L9.09464 26.6279L9.13477 26.5886ZM20.3514 26.5283H9.13477V26.6407H20.3514V26.5283ZM20.4132 26.5777L20.3994 26.5552L20.3035 26.6138L20.3173 26.6363L20.4132 26.5777ZM20.3091 26.5845V26.607H20.4214V26.5845H20.3091ZM22.237 26.5283H20.3652V26.6407H22.237V26.5283ZM22.2932 29.6669V26.5845H22.1808V29.6669H22.2932ZM22.285 29.6377L22.2849 29.6375L22.1891 29.6962L22.1892 29.6964L22.285 29.6377ZM22.2854 29.6957L22.2855 29.6955L22.1887 29.6386L22.1886 29.6387L22.2854 29.6957ZM22.2932 32.871V29.6672H22.1808V32.871H22.2932ZM20.3652 32.9272H22.237V32.8148H20.3652V32.9272ZM20.3091 32.8475V32.871H20.4214V32.8475H20.3091ZM20.3999 32.8994L20.4137 32.876L20.3168 32.819L20.303 32.8425L20.3999 32.8994ZM15.2915 32.9271H20.3514V32.8148H15.2915V32.9271ZM15.3316 32.8316L9.17489 26.5493L9.09464 26.6279L15.2514 32.9103L15.3316 32.8316ZM9.07859 26.5845V26.5886H9.19095V26.5845H9.07859Z" fill="#C6C6C6" mask="url(#path-11-inside-4_729_19318)"/>
  <path d="M27.8847 10.7372L34.7642 16.2978L27.8847 21.8585L27.8847 10.7372Z" fill="#C6C6C6" stroke="#C6C6C6" stroke-width="0.0561798"/>
</svg>