 <svg width="452" height="266" viewBox="0 0 452 266" fill="none" xmlns="http://www.w3.org/2000/svg">
<rect width="452" height="265.3" rx="10.8286" fill="#DFFF60"/>
<path fill-rule="evenodd" clip-rule="evenodd" d="M147.249 106.375L202.696 125.51L183.839 131.33L183.968 131.493L183.798 131.434L163.662 171.754L288.758 214.927L320.18 225.864L340.478 185.561L328.103 181.254L328.093 181.233L322.333 179.245L297.308 170.535L297.277 170.598L271.624 161.744L291.508 156.161L291.544 156.174L291.557 156.148L291.568 156.144L291.561 156.14L311.68 115.854L167.385 66.0547C161.631 68.0867 155.879 70.1145 150.127 72.1424L150.125 72.1432C144.372 74.1713 138.62 76.1995 132.865 78.2318L147.249 106.375Z" fill="#C1F100"/>
</svg>
