<svg width="708" height="366" viewBox="0 0 708 366" fill="none" xmlns="http://www.w3.org/2000/svg">
<rect width="708" height="366" rx="10.8286" fill="#DFFF60"/>
<path fill-rule="evenodd" clip-rule="evenodd" d="M230.647 146.751L317.497 173.151L287.96 181.179L288.163 181.404L287.896 181.322L256.356 236.946L452.373 296.528L501.52 311.595L533.315 255.995L513.93 250.052L513.915 250.024L504.966 247.304L465.695 235.265L465.646 235.352L425.464 223.138L456.61 215.436L456.666 215.453L456.686 215.417L456.704 215.412L456.693 215.406L488.206 159.829L262.187 91.1271C253.173 93.9309 244.161 96.729 235.15 99.527L235.143 99.5293C226.135 102.326 217.127 105.124 208.116 107.926L230.647 146.751Z" fill="#C1F100"/>
</svg>
