<svg width="602" height="187" viewBox="0 0 602 187" fill="none" xmlns="http://www.w3.org/2000/svg">
<rect x="450.5" width="151.3" height="187" rx="20.4" fill="#3D4149"/>
<rect width="450.5" height="187" rx="20.4" fill="#3D4149"/>
<path fill-rule="evenodd" clip-rule="evenodd" d="M289.102 61.9418L328.823 78.4319L315.313 83.4468L315.401 83.5802L315.283 83.5311L300.86 118.273L389.637 155.129L412.973 164.9L427.513 130.173L418.65 126.462L418.642 126.441L413.686 124.384L396.59 117.226L396.568 117.277L378.201 109.652L392.439 104.842L392.461 104.852L392.469 104.832L392.48 104.829L392.473 104.823L406.884 70.1099L303.525 27.2C299.403 28.9512 295.283 30.6987 291.162 32.4463C287.041 34.1939 282.921 35.9414 278.799 37.6925L289.102 61.9418Z" fill="#363636"/>
</svg>
