<svg width="80" height="80" viewBox="0 0 80 80" fill="none" xmlns="http://www.w3.org/2000/svg">
<circle cx="40" cy="40" r="40" fill="#F7F7F7"/>
<path d="M36.9263 48.868L53.9966 43.1022L40.4221 31.5707L28.4365 36.0199L36.9263 48.868Z" fill="#DFFF60"/>
<path d="M19.7554 28.897L53.9911 43.1101L58.7686 31.6025L24.5329 17.3894C21.8021 18.5495 19.0733 19.7048 16.3426 20.8649C17.4802 23.5422 18.6178 26.2196 19.7554 28.897Z" fill="#0E6EFF"/>
<path fill-rule="evenodd" clip-rule="evenodd" d="M62.6649 50.267L65.6022 51.4968L60.786 62.9995L53.3441 59.8836L23.6494 47.5557L28.4269 36.0481L55.3521 47.2262L55.3596 47.2083L61.3094 49.6995L62.6625 50.2612C62.6633 50.2631 62.6641 50.2651 62.6649 50.267Z" fill="#0E6EFF"/>
</svg>
