<svg xmlns="http://www.w3.org/2000/svg" width="144" height="34" viewBox="0 0 144 34" fill="none">
  <path d="M48.8264 11.5976H53.8959V28.8907C53.8959 31.4422 52.1589 33.2241 49.5535 33.2241H43.6155L46.5037 28.749H48.8264V11.5976ZM48.8264 5.62402H53.8959V10.0992H48.8264V5.62402Z" fill="#2C5AFF"/>
  <path d="M57.2485 25.9948V15.1006C57.2485 12.9744 58.5614 11.6177 60.7629 11.6177H68.3974C70.8413 11.6177 72.0733 13.0149 72.0733 15.3638V19.7985C72.0733 21.9247 71.2452 23.0182 69.0437 23.0182H62.2776V25.1039H72.3359L69.4477 29.498H60.7831C58.5816 29.498 57.2687 28.121 57.2687 26.0151L57.2485 25.9948ZM67.1048 15.9916H62.2574V18.9885H67.1048V15.9916Z" fill="#2C5AFF"/>
  <path d="M89.8873 29.4777H84.8784V26.0961L82.3942 29.4777H78.5971C76.3956 29.4777 75.0828 28.1008 75.0828 25.9948V15.1006C75.0828 12.9744 76.3956 11.6177 78.5971 11.6177H84.8582V5.64404H89.8671V29.498L89.8873 29.4777ZM84.8784 24.9621V16.1333H80.1119V24.9621H84.8784Z" fill="#2C5AFF"/>
  <path d="M93.2402 25.9948V15.1006C93.2402 12.9744 94.5531 11.6177 96.7546 11.6177H104.389C106.833 11.6177 108.065 13.0149 108.065 15.3638V19.7985C108.065 21.9247 107.237 23.0182 105.035 23.0182H98.2693V25.1039H108.328L105.439 29.498H96.7747C94.5733 29.498 93.2604 28.121 93.2604 26.0151L93.2402 25.9948ZM103.096 15.9916H98.2492V18.9885H103.096V15.9916Z" fill="#2C5AFF"/>
  <path d="M114.73 11.5977H123.414L120.062 16.1133H116.265V29.4577H111.195V15.0806C111.195 12.9544 112.508 11.5977 114.709 11.5977H114.73Z" fill="#2C5AFF"/>
  <path d="M140.417 29.5534H132.419C130.217 29.5534 128.904 28.1765 128.904 26.0705V15.1763C128.904 13.0501 130.217 11.6934 132.419 11.6934H140.417C142.618 11.6934 143.931 13.0703 143.931 15.1763V26.0705C143.931 28.1967 142.618 29.5534 140.417 29.5534ZM133.933 16.209V25.0378H138.922V16.209H133.933Z" fill="#2C5AFF"/>
  <path d="M124.599 16.1367H111.196V11.6313H124.599C125.35 12.3973 126.101 13.1615 126.852 13.9275C126.101 14.6639 125.35 15.4003 124.599 16.1367Z" fill="#2C5AFF"/>
  <path d="M15.5029 22.9013L27.0456 19.0026L17.8667 11.2051L9.76221 14.2136L15.5029 22.9013Z" fill="#51E877"/>
  <path d="M3.89171 9.39711L27.0415 19.0079L30.272 11.2266L7.12216 1.61579C5.27566 2.40021 3.43049 3.18144 1.58399 3.96586C2.35323 5.77628 3.12247 7.5867 3.89171 9.39711Z" fill="#2C5AFF"/>
  <path fill-rule="evenodd" clip-rule="evenodd" d="M32.9077 23.8476L34.8925 24.6787L31.6359 32.4567L26.4722 30.2946L6.52563 22.0137L9.75609 14.2324L27.9616 21.7905L27.9665 21.7788L31.8584 23.4083L32.9059 23.8432C32.9065 23.8447 32.9071 23.8462 32.9077 23.8476Z" fill="#2C5AFF"/>
</svg>