<svg width="511" height="440" viewBox="0 0 511 440" fill="none" xmlns="http://www.w3.org/2000/svg">
<rect x="1" y="0.5" width="509" height="439" rx="9.5" fill="#2D3036" stroke="#2D3036"/>
<path fill-rule="evenodd" clip-rule="evenodd" d="M147.336 156.768L212.237 183.712L190.161 191.906L190.305 192.124L190.114 192.045L166.547 248.812L311.832 309.129L349.738 325L373.497 268.256L359.014 262.192L359.001 262.159L351.129 258.891L322.969 247.101L322.934 247.186L292.919 234.725L316.185 226.866L316.222 226.882L316.236 226.849L316.25 226.844L316.241 226.836L339.79 170.114L170.903 100C164.168 102.861 157.435 105.717 150.702 108.572C143.968 111.428 137.235 114.283 130.5 117.145L147.336 156.768Z" fill="#2A2727"/>
</svg>
