<svg width="30" height="30" viewBox="0 0 30 30" fill="none" xmlns="http://www.w3.org/2000/svg">
<path fill-rule="evenodd" clip-rule="evenodd" d="M7.21852 11.1087L11.916 13.0589L10.3182 13.652L10.3286 13.6677L10.315 13.6621L8.60921 17.7708L19.0927 22.123L21.868 23.285L23.5875 19.1781L22.5396 18.7393L22.5386 18.7368L21.9366 18.4869L19.9305 17.6469L19.9279 17.653L17.7555 16.7511L19.4395 16.1823L19.4421 16.1834L19.4431 16.1811L19.4442 16.1807L19.4435 16.1801L21.1479 12.0747L8.92428 7C8.43695 7.20702 7.9498 7.41362 7.46266 7.62022L7.46213 7.62045L7.46203 7.62049C6.97474 7.82715 6.48746 8.03381 6 8.24089L7.21852 11.1087Z" fill="#C6C6C6"/>
<circle cx="15" cy="15" r="14.5" stroke="#C6C6C6"/>
</svg>
