<svg width="57" height="57" viewBox="0 0 57 57" fill="none" xmlns="http://www.w3.org/2000/svg">
<circle cx="28.5" cy="28.5" r="28.5" fill="#202125" fill-opacity="0.77"/>
<rect x="12.4648" y="13.343" width="10.2024" height="28.3399" fill="#DFFF60"/>
<path fill-rule="evenodd" clip-rule="evenodd" d="M26.5086 36.5999C27.112 34.3483 29.4264 33.012 31.678 33.6154C33.9297 34.2187 35.2659 36.5331 34.6626 38.7847C34.0593 41.0364 31.7448 42.3726 29.4932 41.7693C27.2415 41.166 25.9053 38.8516 26.5086 36.5999ZM31.787 32.8318C29.1461 32.178 26.4567 33.757 25.7494 36.3965C25.0338 39.0674 26.6188 41.8128 29.2898 42.5285C31.9607 43.2442 34.7061 41.6591 35.4218 38.9882C35.9317 37.0851 35.2737 35.1443 33.887 33.9267L43.7558 14.4908L41.6442 13.4186L31.787 32.8318Z" fill="#DFFF60"/>
<path fill-rule="evenodd" clip-rule="evenodd" d="M46.3595 36.5999C45.7562 34.3483 43.4418 33.012 41.1901 33.6154C38.9385 34.2187 37.6022 36.5331 38.2056 38.7847C38.8089 41.0364 41.1233 42.3726 43.375 41.7693C45.6266 41.166 46.9628 38.8516 46.3595 36.5999ZM41.0812 32.8318C43.7221 32.178 46.4115 33.757 47.1187 36.3965C47.8344 39.0674 46.2493 41.8128 43.5784 42.5285C40.9074 43.2442 38.162 41.6591 37.4464 38.9882C36.9364 37.0851 37.5945 35.1443 38.9811 33.9267L29.1123 14.4908L31.2239 13.4186L41.0812 32.8318Z" fill="#DFFF60"/>
<path d="M23.234 18.1375H18.1328" stroke="#3D4149" stroke-width="0.441177"/>
<path d="M23.234 20.4048H18.1328" stroke="#3D4149" stroke-width="0.441177"/>
<path d="M23.234 22.6719H18.1328" stroke="#3D4149" stroke-width="0.441177"/>
<path d="M23.234 24.939H18.1328" stroke="#3D4149" stroke-width="0.441177"/>
<path d="M23.234 31.7407H18.1328" stroke="#3D4149" stroke-width="0.441177"/>
<path d="M23.234 27.2063H18.1328" stroke="#3D4149" stroke-width="0.441177"/>
<path d="M23.234 34.0078H18.1328" stroke="#3D4149" stroke-width="0.441177"/>
<path d="M23.234 29.4734H18.1328" stroke="#3D4149" stroke-width="0.441177"/>
<path d="M23.234 36.2751H18.1328" stroke="#3D4149" stroke-width="0.441177"/>
</svg>
