<svg width="68" height="68" viewBox="0 0 68 68" fill="none" xmlns="http://www.w3.org/2000/svg">
<circle cx="34" cy="34" r="34" fill="#202125"/>
<rect x="14.8711" y="15.918" width="12.1712" height="33.809" fill="#DFFF60"/>
<path fill-rule="evenodd" clip-rule="evenodd" d="M32.4377 43.8815C33.0368 41.6455 35.3351 40.3186 37.5711 40.9177C39.8071 41.5169 41.134 43.8152 40.5349 46.0512C39.9358 48.2872 37.6374 49.6141 35.4015 49.015C33.1655 48.4158 31.8385 46.1175 32.4377 43.8815ZM37.9192 39.1678C34.7688 38.3879 31.5605 40.2717 30.7168 43.4204C29.863 46.6068 31.754 49.882 34.9403 50.7358C38.1267 51.5896 41.402 49.6987 42.2558 46.5123C42.8641 44.2419 42.079 41.9264 40.4246 40.4739L52.1979 17.2872L49.6788 16.0081L37.9192 39.1678Z" fill="#DFFF60"/>
<path fill-rule="evenodd" clip-rule="evenodd" d="M54.491 43.8815C53.8919 41.6455 51.5936 40.3186 49.3576 40.9177C47.1216 41.5169 45.7947 43.8152 46.3938 46.0512C46.993 48.2872 49.2913 49.6141 51.5273 49.015C53.7632 48.4158 55.0902 46.1175 54.491 43.8815ZM49.0095 39.1678C52.16 38.3879 55.3682 40.2717 56.2119 43.4204C57.0657 46.6068 55.1748 49.882 51.9884 50.7358C48.802 51.5896 45.5268 49.6987 44.673 46.5123C44.0646 44.2419 44.8497 41.9264 46.5041 40.4739L34.7308 17.2872L37.2499 16.0081L49.0095 39.1678Z" fill="#DFFF60"/>
<path d="M27.7184 21.6377H21.6328" stroke="#1C1C1E"/>
<path d="M27.7184 24.3423H21.6328" stroke="#1C1C1E"/>
<path d="M27.7184 27.0474H21.6328" stroke="#1C1C1E"/>
<path d="M27.7184 29.752H21.6328" stroke="#1C1C1E"/>
<path d="M27.7184 37.8662H21.6328" stroke="#1C1C1E"/>
<path d="M27.7184 32.4565H21.6328" stroke="#1C1C1E"/>
<path d="M27.7184 40.5708H21.6328" stroke="#1C1C1E"/>
<path d="M27.7184 35.1611H21.6328" stroke="#1C1C1E"/>
<path d="M27.7184 43.2754H21.6328" stroke="#1C1C1E"/>
</svg>
