<svg width="68" height="68" viewBox="0 0 68 68" fill="none" xmlns="http://www.w3.org/2000/svg">
<circle cx="34" cy="34" r="34" fill="#B9C8FF"/>
<circle cx="34" cy="34" r="33.7491" stroke="#2C5AFF" stroke-opacity="0.24" stroke-width="0.501699"/>
<path fill-rule="evenodd" clip-rule="evenodd" d="M15.6896 23.4879L27.7836 28.5088L23.6715 30.0352L23.6989 30.0766L23.6611 30.0609L19.2699 40.6382L46.3585 51.8842L53.4035 54.8339L57.8303 44.2612L55.1313 43.1311L55.1289 43.125L53.6811 42.5239L48.4158 40.3193L48.4091 40.3352L42.817 38.0136L47.1517 36.5495L47.1574 36.5519L47.1595 36.5469L47.1651 36.545L47.1615 36.542L51.5486 25.9747L20.0808 12.9106C18.8259 13.4438 17.5713 13.9758 16.3168 14.5079C15.0623 15.0399 13.8077 15.572 12.5527 16.1051L15.6896 23.4879Z" fill="#2C5AFF"/>
</svg>
